inDegrees=no
num_controls=7
num_derivatives=13
num_iterations=117
num_multipliers=7
num_parameters=0
num_slacks=7
num_states=26
objective=5.649382
objective_accelerations=0.545496
objective_balance=0.013626
objective_effort=0.438353
objective_height=4.575341
objective_ligament=0.076565
solver_duration=1013.694115
status=Solve_Succeeded
success=true
DataType=double
version=3
OpenSimVersion=4.4-2022-07-23-0e9fedc
endheader
time	/jointset/ground_pelvis/pelvis_tilt/value	/jointset/ground_pelvis/pelvis_tx/value	/jointset/ground_pelvis/pelvis_ty/value	/jointset/hip_r/hip_flexion_r/value	/jointset/hip_r/hip_adduction_r/value	/jointset/hip_r/hip_rotation_r/value	/jointset/back/lumbar_extension/value	/jointset/patellofemoral_r/patellar_flexion_r/value	/jointset/knee_r/knee_flexion_r/value	/jointset/knee_r/knee_adduction_r/value	/jointset/knee_r/knee_rotation_r/value	/jointset/ankle_r/ankle_angle_r/value	/jointset/subtalar_r/subtalar_angle_r/value	/jointset/ground_pelvis/pelvis_tilt/speed	/jointset/ground_pelvis/pelvis_tx/speed	/jointset/ground_pelvis/pelvis_ty/speed	/jointset/hip_r/hip_flexion_r/speed	/jointset/hip_r/hip_adduction_r/speed	/jointset/hip_r/hip_rotation_r/speed	/jointset/back/lumbar_extension/speed	/jointset/patellofemoral_r/patellar_flexion_r/speed	/jointset/knee_r/knee_flexion_r/speed	/jointset/knee_r/knee_adduction_r/speed	/jointset/knee_r/knee_rotation_r/speed	/jointset/ankle_r/ankle_angle_r/speed	/jointset/subtalar_r/subtalar_angle_r/speed	/forceset/tau_hip_flexion_r	/forceset/tau_hip_adduction_r	/forceset/tau_hip_rotation_r	/forceset/tau_knee_flexion_r	/forceset/tau_ankle_angle_r	/forceset/tau_subtalar_angle_r	/forceset/tau_lumbar_extension	lambda_cid13_p0	lambda_cid14_p0	lambda_cid14_p1	lambda_cid14_p2	lambda_cid14_p3	lambda_cid14_p4	lambda_cid14_p5	/jointset/ground_pelvis/pelvis_tilt/accel	/jointset/ground_pelvis/pelvis_tx/accel	/jointset/ground_pelvis/pelvis_ty/accel	/jointset/hip_r/hip_flexion_r/accel	/jointset/hip_r/hip_adduction_r/accel	/jointset/hip_r/hip_rotation_r/accel	/jointset/back/lumbar_extension/accel	/jointset/patellofemoral_r/patellar_flexion_r/accel	/jointset/knee_r/knee_flexion_r/accel	/jointset/knee_r/knee_adduction_r/accel	/jointset/knee_r/knee_rotation_r/accel	/jointset/ankle_r/ankle_angle_r/accel	/jointset/subtalar_r/subtalar_angle_r/accel	gamma_cid13_p0	gamma_cid14_p0	gamma_cid14_p1	gamma_cid14_p2	gamma_cid14_p3	gamma_cid14_p4	gamma_cid14_p5
0.5	-0.1299449424565406	0.03775239535332335	0.8168143431922695	0.8421226214962602	-0.2520537987325102	-0.05834552202329535	-0.6424190950517894	0.9268369022388994	0.9268369022390042	0.06513375893373995	0.1741524261249382	0.289108050021714	0.09070298794074759	-0.3342495617409939	-0.1880673240154226	-0.4520989892235902	1.735774933204196	-0.03735188609418828	0.4873377280885433	-0.7372180973872516	1.84917610616165	1.849176106161685	-0.09320857516267264	-0.002832690180503351	0.5248689495716216	0.1123915346884646	-0.1910663848015669	0.006606955939853577	0.03502177168141117	-0.2817326196714982	-0.01189625060663516	-0.01380171259918491	0.2359863977896047	-9.422026737339198	-47.05801937029217	-12.73982153593457	0.7467528962884825	-2.537680085393938	-644.3576659509778	57.05670181761616	0.2324317325021847	0.518362957056925	-0.3517385600857387	-1.182073886860106	0.1878815116219945	-0.1722180729517057	1.712148425189945	-1.38173237050434	-1.381732370504342	0.462646620834224	-0.008508775256465817	-0.4772658860507863	0.2009270512086425	-7.744137986855857e-08	-3.886048277837965e-10	1.237979562301149e-06	-1.689909315034261e-07	-1.290597744193724e-07	-1.338296118746165e-07	8.228418829831099e-07
0.51	-0.1332751242610715	0.03589780504239668	0.8122768050790738	0.8594185336199102	-0.2524183057283281	-0.05348262174747727	-0.6497050451662578	0.9452567710626639	0.9452567710627462	0.06422458715278236	0.1741253116537941	0.2943318582058915	0.09183612653847109	-0.331736786367015	-0.1828355645755262	-0.4553074603391024	1.72317234130756	-0.03554090266726618	0.4851720297545598	-0.7198855706201739	1.834542225009179	1.834542225009187	-0.08866478628397394	-0.002585719979239595	0.5198172636775407	0.1142309446376139	-0.1971357900496702	0.007540073341378621	0.03568462123660025	-0.2861727271124095	-0.01329467982381733	-0.01344130251378443	0.2416552945499069	-8.455146243462194	-47.7773650803265	-12.837906970798	0.9093504248282168	-2.427170320135352	-648.8316775554686	57.3582197626308	0.2682047802959299	0.5278293321963209	-0.2902521641532514	-1.33462225921979	0.1790682321419724	-0.2494151180386331	1.756758035536111	-1.542515781805722	-1.542515781809615	0.4445796033920446	0.04198729722765996	-0.530470965692931	0.1748608835278167	-7.302019356860622e-08	1.080173313544128e-08	1.344511357650741e-06	-9.329670496067593e-08	-1.470562100190712e-07	-1.278682688374419e-07	8.961118949249866e-07
0.52	-0.1365786774437816	0.03409598170481697	0.8077102120993488	0.8765813657409627	-0.2527644305950846	-0.04864351233590102	-0.6568150793664419	0.9635226411160748	0.9635226411161093	0.06335972017692111	0.17410080436057	0.2995028793262101	0.0929875418190392	-0.3289238373749954	-0.1775139293460329	-0.4579099625294465	1.709158932684762	-0.03367546028373777	0.4825795552438941	-0.7020349145303088	1.818376352089214	1.818376352089196	-0.08434761412510429	-0.002311254601596987	0.5143115367992104	0.1160468712571571	-0.2032051952977439	0.008473190742853381	0.03634747079218554	-0.2906128345533153	-0.01469310904102256	-0.01308089242847605	0.2473241913102439	-7.54136950486017	-48.49603809807542	-12.92983662880579	1.064069419548499	-2.340733726591773	-653.2998756757138	57.69744564149246	0.2924664561104842	0.5363381149762738	-0.230544775052108	-1.464237232092411	0.1987733029432415	-0.2575733082882428	1.815774289747525	-1.688130724003045	-1.688130724003031	0.4173232768683845	-0.003009739980509364	-0.5680740829007193	0.1962303852873663	-6.656288114194679e-08	1.55870511028939e-08	1.326591609773532e-06	-4.931583798735121e-08	-1.497520815205072e-07	-1.161025816900524e-07	8.92892754782878e-07
0.53	-0.1398526218121562	0.03234776338140228	0.8031206410908566	0.8935971496428735	-0.2530916745469271	-0.04383247571373759	-0.6637441313333281	0.9816193780240088	0.981619378024005	0.06253682885449144	0.1740791922311441	0.3046166416442799	0.09415693717229592	-0.3258136919115567	-0.1721201116764484	-0.4599007795029044	1.693769176738707	-0.03177166829928294	0.4795621427993982	-0.6837035094128555	1.800730414224428	1.800730414224415	-0.08026095854194362	-0.00200489998495017	0.5083705295979711	0.1178171064248891	-0.209196288384249	0.009291870463289118	0.03697142656782457	-0.2950797286918395	-0.01621883718404014	-0.01272995557351227	0.2528861877334876	-6.683988335291786	-49.26190914895093	-13.0287371276475	1.21372341238	-2.165872699278803	-657.8082600571662	58.04603844760239	0.3279931907520837	0.5423169083977295	-0.1678531931001633	-1.610642316415461	0.1865064044328379	-0.3337808237735746	1.852619037963801	-1.838904974574255	-1.838904974573459	0.399968968556557	0.04843315706029623	-0.6177105958199701	0.1653598998403238	-5.981854852787042e-08	1.952273770898743e-08	1.289264548485591e-06	-1.040711592007203e-08	-1.501321500778149e-07	-1.036415287585243e-07	8.775060818455313e-07
0.54	-0.1430939238060472	0.03065376589777298	0.7985142613057079	0.9104521764772137	-0.2533998157272695	-0.03905360433828309	-0.670487710165996	0.9995324396219317	0.9995324396218686	0.06175393054173427	0.1740608386668137	0.3096688745789228	0.09534362284069609	-0.3223953624764277	-0.1666697613889551	-0.461271717860725	1.677007519170528	-0.02985490598536389	0.4761465059051699	-0.6649402876866097	1.781641290085324	1.781641290085316	-0.07634901217812197	-0.001659541585399973	0.5020056601133526	0.1195049342855958	-0.2151873814707165	0.01011055018369189	0.03759538234376062	-0.2995466228303568	-0.01774456532707467	-0.01237901871861123	0.2584481841567699	-5.883485409092645	-50.02733933673827	-13.12129144478535	1.355204798396094	-2.015651528131722	-662.3153156996487	58.4307452636742	0.3541032504486887	0.5476446385580411	-0.1065690519246467	-1.738617556517054	0.201367368836068	-0.3372181982348075	1.902137611506123	-1.976767978866564	-1.976767978866534	0.3823814330005605	0.004791016600312908	-0.6528465395766041	0.1797489238822551	-5.275666166388591e-08	2.251840663868365e-08	1.230465565977264e-06	2.288987135753967e-08	-1.479500536756614e-07	-9.041113495943856e-08	8.486574577304742e-07
0.55	-0.1462995814928362	0.02901450761443971	0.7938972730081149	0.9271329233080047	-0.2536887143393229	-0.03431079312510361	-0.6770415774219011	1.017247585549671	1.017247585549639	0.0610092003417343	0.1740459943607177	0.3146554378928854	0.09654680216150364	-0.3186874320167684	-0.1611764214233531	-0.4620212742745721	1.658922281708978	-0.027926582535101	0.4723552499627542	-0.6457746113816106	1.761161528195711	1.761161528195706	-0.07262320481999411	-0.001306334812903275	0.4952438021810172	0.1211116768418216	-0.2209883313149991	0.01087174278216753	0.03818169244906559	-0.3041549352698567	-0.01915771860844061	-0.01211499461825567	0.2638184943760345	-5.139844479541793	-50.76362055731168	-13.25091065230673	1.507646928188793	-1.839192171242684	-666.8048484107745	58.76339931549872	0.3864522642283679	0.5509704017792414	-0.04346546752096278	-1.876408191582687	0.1883725301483203	-0.4092465142604563	1.932565457006721	-2.11752560320005	-2.117525603199454	0.3639136551841538	0.0510802917056199	-0.6973695086004347	0.1484420174558511	-4.632800650949744e-08	2.487436660851598e-08	1.171418874399555e-06	5.128282914528478e-08	-1.453046546920485e-07	-7.798022124426634e-08	8.195137438782558e-07
0.5600000000000001	-0.1494666970109369	0.02743034107600592	0.7892759258401015	0.9436262314940596	-0.2539583681774619	-0.02960772791575751	-0.6834020313513544	1.034751144796684	1.034751144796666	0.06030097486888823	0.1740347810791752	0.3195724798098171	0.09776550992706751	-0.3146869287369328	-0.1556514124090587	-0.4621434919447284	1.639519790223089	-0.02600595120375906	0.4681973051397236	-0.6262576223962064	1.739323953938439	1.739323953938438	-0.06904806674326575	-0.0009333366751747059	0.4881013807071439	0.1226106232365811	-0.2267892811592372	0.01163293538064834	0.03876800255451065	-0.3087632477093514	-0.0205708718898109	-0.01185097051789662	0.2691888045953391	-4.452631055211159	-51.5002324002574	-13.37471902485259	1.652459154224409	-1.687241371304288	-671.3046023682509	59.12963241327728	0.4126178144840532	0.5539784482965237	0.01889869681353598	-2.002068361384866	0.199828945051845	-0.4105559743578922	1.972400147587239	-2.248330452398203	-2.248330452398252	0.3522475767206412	0.008749289646794431	-0.7289592478841572	0.1581896915889457	-4.065922940662419e-08	2.646267582651166e-08	1.112074931938587e-06	7.379095154519016e-08	-1.421032926106842e-07	-6.650868362979026e-08	7.900159223414436e-07
0.5700000000000001	-0.1525924126653174	0.02590153382197552	0.7846564857944828	0.9599191124052875	-0.2542088426761774	-0.02494799025314195	-0.6895656439400354	1.052029722094091	1.052029722094168	0.0596276887203786	0.1740272634097878	0.3244162823330948	0.09899869239166202	-0.3104092053419145	-0.1501090078562712	-0.4616395375805951	1.618845518663448	-0.02409348790057413	0.4636927344236227	-0.6064201290097224	1.716178769220277	1.716178769220273	-0.06563259665463531	-0.0005692628343200418	0.4806022342034512	0.1240028886364091	-0.2323992037594277	0.01234343075900412	0.03931575159706749	-0.3134233190978544	-0.02196171863696025	-0.01165149304288767	0.2743531644659645	-3.821086696481803	-52.23207486432498	-13.52808106607714	1.804674283308944	-1.482632480047635	-675.730048666339	59.44884067655885	0.4424017205776898	0.554497981457442	0.08187874204426948	-2.131734105256222	0.1863422025600457	-0.4791107293649396	1.996138883797889	-2.379515439460733	-2.379515439461004	0.332822625801487	0.05043144788837513	-0.7689567943411768	0.126477406001825	-3.546239042820025e-08	2.769390396380101e-08	1.050805536001993e-06	9.221119099672506e-08	-1.385259372150149e-07	-5.532814731437189e-08	7.585218038305266e-07
0.58	-0.1556739406620432	0.02442817591801033	0.7800452322796709	0.9759989250905207	-0.2544403151059345	-0.02033503891951063	-0.6955295386049282	1.069070466952735	1.069070466952897	0.05898788245293304	0.1740234254821227	0.3291833805027881	0.1002451439986208	-0.3058493972041981	-0.1445615423960135	-0.4605061857832799	1.596906145023715	-0.02220553741306849	0.4588400393423813	-0.5863140376384756	1.691757466184691	1.691757466184685	-0.06235209053132836	-0.0001973883301431335	0.4727605099905843	0.1252644517091329	-0.2380091263595689	0.01305392613739732	0.03986350063965845	-0.3180833904863541	-0.02335256538410343	-0.01145201556781797	0.2795175243366307	-3.24434908125872	-52.96507384565813	-13.67612764818613	1.949739258594664	-1.30198952435817	-680.1781182330996	59.79964015593762	0.4690347630237566	0.5549906297905542	0.1447781834499118	-2.255088777403167	0.1949263819159468	-0.4801808473860426	2.026119744539886	-2.503554115883017	-2.503554115883026	0.3252547836559218	0.01030942231131541	-0.7974747897189766	0.1320492261680802	-3.088016854208243e-08	2.846009627505424e-08	9.87028572748304e-07	1.053076759108473e-07	-1.344589161076927e-07	-4.452658943493578e-08	7.244278567021708e-07
0.59	-0.1587085409881258	0.02301027292538491	0.7754484405608678	0.9918532139100193	-0.2546530134831241	-0.01577224905072292	-0.7012911050788879	1.085860799197767	1.085860799197879	0.05838017286023873	0.1740231965254006	0.3338704352376202	0.101503589072553	-0.3010258583099187	-0.1390220551970499	-0.4587477771337995	1.573749642023819	-0.02034083296737453	0.4536628476421264	-0.5659685407542628	1.666109476781475	1.666109476781468	-0.05921091758412356	0.0001505403651304294	0.4645998705007622	0.1263986136372678	-0.243386558690499	0.01369712146926363	0.04037444003381924	-0.3227747337750244	-0.02469873153652274	-0.01130520412271675	0.2844370168636238	-2.720868479201562	-53.68159071240255	-13.84566309488696	2.099945531908067	-1.075812094402157	-684.4935871283234	60.11516181039038	0.4957369941565712	0.5529514895917629	0.2070216925577358	-2.376224389823433	0.181299622198321	-0.5448168547770289	2.043372120301584	-2.625341619534229	-2.625341619534285	0.3055063080775396	0.04693409298451862	-0.8329709964898706	0.1003697370570777	-2.663071312192942e-08	2.898298125639882e-08	9.245483482409655e-07	1.163110735685471e-07	-1.30185652544352e-07	-3.44614141038822e-08	6.904467108003676e-07
